<?xml version="1.0" standalone="no"?><!DOCTYPE svg PUBLIC "-//W3C//DTD SVG 1.1//EN" "http://www.w3.org/Graphics/SVG/1.1/DTD/svg11.dtd"><svg t="1667108983068" class="icon" viewBox="0 0 1024 1024" version="1.1" xmlns="http://www.w3.org/2000/svg" p-id="10956" xmlns:xlink="http://www.w3.org/1999/xlink" width="200" height="200"><path d="M896 614.4h-77.568a425.8816 425.8816 0 0 0-39.9872-158.8224A128.2048 128.2048 0 0 0 870.3488 332.8a25.6 25.6 0 0 0-51.2 0c0 38.9632-29.184 71.2704-66.8672 76.1344a381.5424 381.5424 0 0 0-46.2848-57.5488A230.656 230.656 0 0 0 486.3488 51.2a230.656 230.656 0 0 0-219.648 300.1856 369.2032 369.2032 0 0 0-46.2848 57.5488A76.9024 76.9024 0 0 1 153.5488 332.8a25.6 25.6 0 0 0-51.2 0c0 58.0608 38.8608 107.1616 91.904 122.7776A426.8544 426.8544 0 0 0 154.2656 614.4H76.7488a25.6 25.6 0 0 0 0 51.2h77.568a425.8816 425.8816 0 0 0 39.9872 158.8224A128.2048 128.2048 0 0 0 102.4 947.2a25.6 25.6 0 0 0 51.2 0c0-38.9632 29.184-71.2704 66.8672-76.1344 8.9088 13.6192 18.688 26.6752 29.2352 39.0144C312.6784 983.552 396.6976 1024 486.3488 1024s173.7216-40.448 236.6464-113.92c10.5984-12.3392 20.3264-25.3952 29.2352-39.0144a76.9024 76.9024 0 0 1 66.8672 76.1344 25.6 25.6 0 0 0 51.2 0 128.2048 128.2048 0 0 0-91.904-122.7776A426.8544 426.8544 0 0 0 818.3808 665.6h77.5168a25.6 25.6 0 0 0 0-51.2z m-409.6-512a179.4048 179.4048 0 0 1 176.2816 211.6608C610.3552 276.2752 549.7856 256 486.4 256s-123.9552 20.224-176.2816 58.0608A179.4048 179.4048 0 0 1 486.4 102.4zM204.8 640c0-173.312 112.6912-316.0576 256-331.4176v662.8352c-143.3088-15.36-256-158.1056-256-331.4176z m307.2 331.4176V308.5824c143.3088 15.36 256 158.1056 256 331.4176s-112.6912 316.0576-256 331.4176z" fill="#d4237a" p-id="10957"></path></svg>