<?xml version="1.0" standalone="no"?><!DOCTYPE svg PUBLIC "-//W3C//DTD SVG 1.1//EN" "http://www.w3.org/Graphics/SVG/1.1/DTD/svg11.dtd"><svg t="1688007519235" class="icon" viewBox="0 0 1024 1024" version="1.1" xmlns="http://www.w3.org/2000/svg" p-id="22692" xmlns:xlink="http://www.w3.org/1999/xlink" width="48" height="48"><path d="M847.41082075 147.02516148c-60.56011852-60.56011852-160.35688297-59.2979437-222.47044742 2.80348444L202.12394667 572.31739259c-41.37263408 41.37263408-66.13067852 94.62670222-69.69874964 149.93180444-3.64088889 56.49445925 15.10968889 108.36498963 52.80502519 146.07246222 34.61271703 34.61271703 81.16754963 53.25406815 132.28562963 53.25406816 4.55111111 0 9.1629037-0.14563555 13.7868326-0.44904296 55.31723852-3.56807111 108.55917037-28.32611555 149.93180444-69.69874963l274.52302222-274.49874964c9.47844741-9.47844741 9.47844741-24.84299852 0-34.32144593-9.47844741-9.47844741-24.84299852-9.47844741-34.32144593 0L446.91304297 817.10648889c-67.33217185 67.34430815-169.32560592 74.91735703-227.34923852 16.89372444-58.02363259-58.02363259-50.4505837-160.01706667 16.89372444-227.34923851l422.81642666-422.48874667c43.18094222-43.18094222 112.17578667-44.44311703 153.81541927-2.80348445 41.6274963 41.6274963 40.37745778 110.63447703-2.80348445 153.81541927L488.75899259 657.72050963c-11.14112 11.14112-26.09303703 17.16072297-42.02799407 17.07576889-16.11700148-0.13349925-31.33591703-6.5657363-42.87753482-18.10735407-23.69005037-23.69005037-24.15122963-61.77374815-1.03158518-84.9055289l180.01768296-180.01768296c9.47844741-9.47844741 9.47844741-24.84299852 0-34.32144592-9.47844741-9.47844741-24.84299852-9.47844741-34.32144593 0L368.50043259 537.44981333c-42.05226667 42.05226667-41.59108741 110.93788445 1.03158519 153.56055704 20.59529482 20.59529482 47.8534163 32.06409482 76.78634667 32.31895704h0.9709037c28.71447703 0 55.60850963-11.09257482 75.80330667-31.28737186l321.51476148-322.54634666c62.10142815-62.10142815 63.36360297-161.91032889 2.80348445-222.47044741z" fill="#707070" p-id="22693"></path></svg>