<?xml version="1.0" standalone="no"?><!DOCTYPE svg PUBLIC "-//W3C//DTD SVG 1.1//EN" "http://www.w3.org/Graphics/SVG/1.1/DTD/svg11.dtd"><svg t="1688717225257" class="icon" viewBox="0 0 1024 1024" version="1.1" xmlns="http://www.w3.org/2000/svg" p-id="822" width="32" height="32" xmlns:xlink="http://www.w3.org/1999/xlink"><path d="M385.536 495.616c17.408 11.776 40.448 7.168 52.224-9.728S445.44 445.44 428.032 433.664c-17.408-11.776-40.448-7.168-52.224 9.728-11.776 17.408-7.168 40.96 9.728 52.224z" fill="#1afa29" p-id="823"></path><path d="M986.624 308.736c-20.48 0-37.376 16.896-37.376 37.376v572.928H74.752V346.624c0-20.48-16.896-37.376-37.376-37.376S0 325.632 0 346.624v593.92c0 29.696 24.064 53.76 53.76 53.76h916.48c29.696 0 53.76-24.064 53.76-53.76v-593.92c0-20.992-16.896-37.888-37.376-37.888z" fill="#1afa29" p-id="824"></path><path d="M462.848 152.064l169.472-27.136L462.336 343.04c-12.8 16.384-9.728 39.936 6.656 52.736 8.192 6.144 17.92 8.704 27.648 7.68 9.728-1.024 18.432-6.144 25.088-14.336l171.52-220.672 16.896 156.672c2.048 18.944 18.432 33.28 37.376 33.28h4.096c20.48-2.56 35.328-20.992 33.28-41.472l-25.088-227.84c-0.512-15.872-8.192-30.72-21.504-40.448-12.8-9.728-28.672-13.312-44.544-9.728L450.56 77.824c-20.48 3.072-34.304 22.528-31.232 43.008 3.584 20.48 23.04 34.304 43.52 31.232z" fill="#1afa29" p-id="825"></path></svg>