<?xml version="1.0" standalone="no"?><!DOCTYPE svg PUBLIC "-//W3C//DTD SVG 1.1//EN" "http://www.w3.org/Graphics/SVG/1.1/DTD/svg11.dtd"><svg t="1667109018201" class="icon" viewBox="0 0 1569 1024" version="1.1" xmlns="http://www.w3.org/2000/svg" p-id="12005" xmlns:xlink="http://www.w3.org/1999/xlink" width="306.4453125" height="200"><path d="M1083.135264 718.4c44.8 55.7 220 243 233.6 258.3 15.2 14.9 36.1 21.8 50.2 10.9 17.3-14.2 48-46.6 59.3-61.4 13.3-15.4 13-30.9-3.1-46.2-12.4-13.3-194.2-181-260.6-241L1083.135264 718.4zM953.435264 426.7c-33.4-39.4-38.4-41-49-55.1-11.8-16.5 6.5-52.3 15.4-76.9 12.8-28.2 19-117.9-38.5-181.8C812.435264 32.5 729.335264 10.2 683.735264 10.2c-19.9 2.8-19.6 9.3-7.9 32.5 14.1 28.5 69 134.5 75.9 150.7 11 28.3-61 97.9-95.7 85.5-17.6-6.3-116-55-135.2-64.1l-19.2-10c-22.9-13.2-25.3-7.9-29.9 3.6-3 9.8 0.5 102.9 77.1 193 64 69.5 146 68.7 190.2 52.7 30.1-10 47.9-17.6 68.5-3.9 15.9 10.1 39.7 35 69.9 61.7L953.435264 426.7z" p-id="12006" fill="#8a8a8a"></path><path d="M1437.163264 23.04c-20.992-19.456-46.08-14.848-67.584 7.168-28.672 29.696-228.352 283.648-235.52 292.864-7.68 9.216-10.752 7.168-7.68 18.432 3.072 11.264 10.24 36.864 10.24 36.864s-34.816 14.336-62.976 27.648c-28.16 12.8-61.952 29.696-69.632 34.816s-14.336 9.728-13.824 22.528c0.512 16.896 9.728 54.272 9.728 54.272s-321.024 384-342.528 410.112-57.344 72.704-49.664 79.36c7.68 6.144 58.88-30.208 78.848-47.616 19.968-17.408 399.872-357.376 399.872-357.376s35.84 8.192 52.736 8.192c14.336 0 17.92-2.048 25.088-13.824 4.608-8.192 19.968-35.328 33.792-68.608 13.824-32.768 28.672-69.632 28.672-69.632s29.184 5.632 33.792 6.656c6.656 1.024 7.168 0.512 11.264-3.584 4.096-4.096 257.536-235.52 278.528-259.072 20.992-23.552 22.016-48.64 3.072-67.072C1532.907264 113.664 1479.147264 61.952 1437.163264 23.04z" p-id="12007" fill="#8a8a8a"></path></svg>