<?xml version="1.0" standalone="no"?><!DOCTYPE svg PUBLIC "-//W3C//DTD SVG 1.1//EN" "http://www.w3.org/Graphics/SVG/1.1/DTD/svg11.dtd"><svg t="1688007163802" class="icon" viewBox="0 0 1024 1024" version="1.1" xmlns="http://www.w3.org/2000/svg" p-id="19386" xmlns:xlink="http://www.w3.org/1999/xlink" width="48" height="48"><path d="M822.857143 457.142857h-621.714286v365.714286h621.714286v-365.714286z m36.571428 384a18.285714 18.285714 0 0 1-18.285714 18.285714H182.857143a18.285714 18.285714 0 0 1-18.285714-18.285714V256a18.285714 18.285714 0 0 1 18.285714-18.285714h109.714286v-17.92a54.857143 54.857143 0 1 1 109.714285 0v17.92h219.428572v-17.92a54.857143 54.857143 0 1 1 109.714285 0v17.92h109.714286a18.285714 18.285714 0 0 1 18.285714 18.285714v585.142857z m-250.660571-305.517714a18.285714 18.285714 0 0 1 25.892571 25.892571l-146.285714 146.285715a18.285714 18.285714 0 0 1-25.892571 0l-73.142857-73.142858a18.285714 18.285714 0 0 1 25.892571-25.892571L475.428571 669.001143l133.339429-133.376zM365.714286 292.242286V219.757714a18.285714 18.285714 0 1 0-36.571429 0v72.484572a18.285714 18.285714 0 1 0 36.571429 0z m329.142857 0V219.757714a18.285714 18.285714 0 1 0-36.571429 0v72.484572a18.285714 18.285714 0 1 0 36.571429 0z" fill="#358EFF" p-id="19387"></path></svg>